<svg xmlns="http://www.w3.org/2000/svg" width="82.399" height="33.811" viewBox="0 0 82.399 33.811"><g transform="translate(-20.905 -39.294)"><g transform="translate(-199)"><path d="M6.263,27.142H20.878A2.086,2.086,0,0,1,18.79,29.23H17.747a2.086,2.086,0,0,0-2.088,2.088v1.3a.785.785,0,0,1-.783.783h-2.61a.785.785,0,0,1-.783-.783v-1.3A2.086,2.086,0,0,0,9.4,29.23H8.351A2.086,2.086,0,0,1,6.263,27.142ZM27.142,13.571A13.55,13.55,0,0,1,20.78,25.054H6.361a13.566,13.566,0,1,1,20.78-11.483ZM15.391,16.435a2.147,2.147,0,0,0,.718-4.176,2.122,2.122,0,0,1-2.734,2.734A2.145,2.145,0,0,0,15.391,16.435Zm3.2,3.06a2.145,2.145,0,0,0-1.442-2.016,2.122,2.122,0,0,1-2.734,2.734,2.147,2.147,0,0,0,4.176-.718Zm4.176-4.176A2.145,2.145,0,0,0,21.328,13.3a2.122,2.122,0,0,1-2.734,2.734,2.147,2.147,0,0,0,4.176-.718Z" transform="translate(219.905 39.7)" fill="white"/><path d="M43.148,91.838H5.568V65.392A1.392,1.392,0,0,0,4.176,64H1.392A1.392,1.392,0,0,0,0,65.392v29.23a2.784,2.784,0,0,0,2.784,2.784H43.148a1.392,1.392,0,0,0,1.392-1.392V93.23A1.392,1.392,0,0,0,43.148,91.838ZM40.365,66.784H30.094a2.088,2.088,0,0,0-1.476,3.564l2.819,2.819L25.054,79.55l-6.383-6.383a2.783,2.783,0,0,0-3.936,0L8.759,79.143a1.392,1.392,0,0,0,0,1.969l1.968,1.968a1.392,1.392,0,0,0,1.969,0L16.7,79.071l6.383,6.383a2.783,2.783,0,0,0,3.936,0L35.373,77.1l2.819,2.819a2.088,2.088,0,0,0,3.564-1.476V68.176A1.39,1.39,0,0,0,40.365,66.784Z" transform="translate(257.764 -24.706)" fill="white"/></g></g></svg>
