<?xml version="1.0" encoding="utf-8"?>
<!-- Generator: Adobe Illustrator 18.0.0, SVG Export Plug-In . SVG Version: 6.00 Build 0)  -->
<!DOCTYPE svg PUBLIC "-//W3C//DTD SVG 1.1//EN" "http://www.w3.org/Graphics/SVG/1.1/DTD/svg11.dtd">
<svg version="1.1" id="Layer_1" xmlns="http://www.w3.org/2000/svg" xmlns:xlink="http://www.w3.org/1999/xlink" x="0px" y="0px"
	 width="4606px" height="3070.6px" viewBox="0 0 4606 3070.6" enable-background="new 0 0 4606 3070.6" xml:space="preserve">
<rect fill="#FFFFFF" width="4606" height="3070.6"/>
<g>
	<ellipse fill="#8DBB47" cx="2685.9" cy="2524" rx="439.9" ry="83.3"/>
	<path fill="#527F8B" d="M3300,1272c-12.2-180.5-229.3-210.7-367.6-233c-295-47.6-602.2-32.3-895.5,20.4
		c38.3-6.9,76.2-29,113.6-40.3c40.3-12.1,79.6-27.1,119.3-42.1c85.8-32.6,171.7-65.1,257.5-97.7c48.2-18.3,100.2-39.7,125.7-84.5
		c35.6-62.5-2.4-135.4-61.5-165.1c-60.1-30.2-131.8-31.4-197.5-32.6c-108.7-2.1-217.9,5.2-325.7,18.7
		c-205.5,25.7-406.5,76.6-605.2,133.7c-173.5,49.9-347.3,100.8-515.9,165.8c-162.8,62.7-322,139.3-463.9,241.4
		c-70.7,50.9-138,108-196.5,172.6c-57.7,63.8-113.3,141.6-134.1,226.4c-9.8,40,0.6,78.4,34.8,103c74.9,53.9,186.7,47.1,273.9,44.5
		c94.7-2.8,188-20.2,281-37.3c92.4-17,184.3-26.9,277-38.2c16.8-2.1,37,1.3,45,16.3c6.9,12.9,1.8,28.9-4.7,42
		c-34.9,70.4-103.2,124.1-162.7,173.2c-63.8,52.6-129.7,103.4-190.7,159.2c-14.5,13.3-28.7,26.9-42.3,41
		c-13.5,14-28.5,28.4-38.7,45.1c-13.6,19.9-26,41.5-28.8,65.9c-2.8,24.8,5.5,47.7,19.2,68.1c31.9,47.5,87.7,69.9,141.2,82.8
		c109.2,26.3,225.4,15,336.7,15.4c122.4,0.4,244.8,0.9,367.1,1.3c168.2-2.3,336.4-9.8,503.9-26c160.6-15.6,328.3-31.6,483.1-78.8
		c22-6.7,44.3-14.5,62.4-28.6c18.1-14.2,31.8-35.9,30.7-58.9c-1.1-22.8-16.5-43.1-35.7-55.6c-45-29.1-108.9-31.3-160.4-38.3
		c-48.9-6.7-98-11.7-147.2-15.7c-65.4-5.4-130.9-7.8-196.4-7.9c184.4-97.4,398.1-125.2,595.9-184.7
		c204.3-61.4,393.3-166.9,548.4-314c37.3-35.4,73.8-72.8,104.1-114.5C3280,1373.1,3303.6,1325.1,3300,1272z M990.1,1631.4
		c2-0.5,4.4-0.6,6.7-0.7C995.1,1630.9,990.4,1631.4,990.1,1631.4z"/>
	<circle fill="#FABB60" cx="911.7" cy="742.5" r="247.4"/>
	<g>
		<path fill="#8DBB47" d="M3239.4,2385.2c54.2-3.5,108.3-7.3,162.4-11.6c164.8-13,329.3-29.7,493.4-50.1
			c149.5-18.6,515.4-39.6,559.3-127.4c29.5-58.9-238.7-58.3-298-76.7c-94.5-29.4-190-55.7-286.1-78.6
			c-212.3-50.8-427.5-83.5-643.9-106.5c-385.5-41.1-775-49.5-1161-10.3c-237.6,24.2-478.2,69.2-708.2,141
			c-118.5,37-234.7,81.2-347.4,133.3c-46,21.2-284.5,112.8-171.5,184.7c19.8,12.6,47.2,13.3,69.9,13.5
			c410,4.6,7.3,252.6,415.7,267.7C1691.5,2678,2872.5,2408.6,3239.4,2385.2z"/>
	</g>
	<g>
		<g>
			<path fill="#789F43" d="M2883.5,1235.8c-11.5,4.3-22.7,9.3-33.8,14.4c-22.3,10.4-44.4,22-63.1,38.1c-9.8,8.5-18.5,18.1-27.2,27.6
				c-9.9,10.9-19.8,21.8-27.8,34.2c-7,10.9-12.4,22.7-17.2,34.7c-13.9,34.6-23.2,72.5-21.5,109.4c-25.1-16.1-30.3-61.1-27.9-86.9
				c3.5-37.9,25.7-72.5,52.6-98.4c36.3-34.8,85.6-56.3,133.5-67.3C2861.9,1239.2,2872.7,1237,2883.5,1235.8z"/>
			<path fill="#8DBB47" d="M2910.3,1235.5c-7.7-0.8-15.4-0.7-23,0c-0.1,0-0.2,0-0.3,0s-0.2,0-0.4,0c-1,0.1-2.1,0.2-3.1,0.3
				c-11.5,4.3-22.7,9.3-33.8,14.4c-22.3,10.4-44.4,22-63.1,38.1c-9.8,8.5-18.5,18.1-27.2,27.6c-9.9,10.9-19.8,21.8-27.8,34.2
				c-7,10.9-12.4,22.7-17.2,34.7c-13.9,34.6-23.2,72.5-21.5,109.4c4.3,2.7,9.1,4.6,14.6,5.5c12.9,1.9,25.9-2.4,37.6-8.2
				c24.6-12.2,45.5-31.4,60.3-54.5c11.3-17.7,17.6-38.5,20.2-59.2c3-23.5,0.9-46.8,8.3-69.9c11.7-37,45.3-65,83.4-71.5
				C2914.9,1236,2912.6,1235.7,2910.3,1235.5z M2907.2,1238.3c0.2,0,0.5-0.1,0.7-0.1s0.3-0.1,0.4-0.1
				C2908.2,1238.2,2907.5,1238.3,2907.2,1238.3z"/>
		</g>
		<g>
			<path fill="#587722" d="M3935,492c-27.1,5.4-54.1,12.2-80.6,19.5c-53.6,14.9-107.1,32.4-154.7,61.4c-25,15.2-48,33.3-70.9,51.4
				c-26.1,20.6-52.3,41.3-74.6,65.9c-19.6,21.6-35.9,46-51.1,70.9c-43.8,72-78.5,152.9-88.5,235.7c-50-45.1-44.7-147.4-29.8-203.8
				c21.9-83.1,84.1-152,153.6-199.6c93.7-64.1,211.4-93.5,322.2-100.3C3885.5,491.6,3910.3,490.6,3935,492z"/>
			<path fill="#789F43" d="M3994.6,501.2c-16.9-4.5-34-7.2-51.2-8.6c-0.2,0-0.4,0-0.6,0c-0.3,0-0.5-0.1-0.8-0.1
				c-2.3-0.2-4.7-0.3-7-0.5c-27.1,5.4-54.1,12.2-80.6,19.5c-53.6,14.9-107.1,32.4-154.7,61.4c-25,15.2-48,33.3-70.9,51.4
				c-26.1,20.6-52.3,41.3-74.6,65.9c-19.6,21.6-35.9,46-51.1,70.9c-43.8,72-78.5,152.9-88.5,235.7c8.5,7.7,18.6,13.7,30.5,17.6
				c28,9.1,58.6,4.3,86.8-4.3c59.3-18.1,113-53.1,154.4-99.1c31.7-35.3,53.4-79.1,66.9-124.4c15.4-51.3,19.5-103.8,44.4-152.7
				c39.8-77.9,124.9-128,212.2-128.3C4004.8,504,3999.7,502.6,3994.6,501.2z M3986.8,506.4c0.5,0,1.1,0,1.6,0c0.4,0,0.8-0.1,0.9-0.2
				C3989,506.5,3987.5,506.5,3986.8,506.4z"/>
		</g>
		<g>
			<path fill="#587722" d="M4320.8,1799.2c-12.7-18.1-26.3-35.6-40.2-52.6c-28.2-34.4-58.2-67.9-94.6-93.4
				c-19.1-13.4-39.8-24.4-60.4-35.3c-23.4-12.5-47-25-72.2-33.4c-22.1-7.4-45.2-11.5-68.3-14.6c-66.7-8.8-137.1-8.2-200.8,11.1
				c16.9-51.1,93.4-80.1,139.4-87.3c67.8-10.7,138.2,12.6,195.4,48.1c77,47.9,136.4,124.5,177,203.3
				C4305.2,1762.9,4313.9,1780.7,4320.8,1799.2z"/>
			<path fill="#789F43" d="M4333.3,1845.7c-2.1-13.8-5.7-27.1-10.2-40.2c-0.1-0.1-0.1-0.3-0.2-0.4c-0.1-0.2-0.1-0.4-0.2-0.6
				c-0.6-1.8-1.3-3.5-1.9-5.3c-12.7-18.1-26.3-35.6-40.2-52.6c-28.2-34.4-58.2-67.9-94.6-93.4c-19.1-13.4-39.8-24.4-60.4-35.3
				c-23.4-12.5-47-25-72.2-33.4c-22.1-7.4-45.2-11.5-68.3-14.6c-66.7-8.8-137.1-8.2-200.8,11.1c-2.9,8.7-4,18-3,27.9
				c2.4,23.4,15.7,44.2,31.1,62.1c32.3,37.5,75.2,65.6,122.1,81c36,11.8,75,13.6,112.5,8.9c42.5-5.3,82.2-19.2,125.9-16.6
				c69.8,4,133.8,50.2,162,113.9C4334.5,1854.2,4333.9,1850,4333.3,1845.7z M4327,1841.8c0.2,0.4,0.4,0.8,0.5,1.1
				c0.2,0.3,0.3,0.5,0.4,0.6C4327.6,1843.4,4327.1,1842.3,4327,1841.8z"/>
		</g>
		<g>
			<path fill="#587722" d="M1923.8,781c-7.5,20.8-14,42-19.9,63.1c-12,42.8-22.1,86.7-22,131.1c0.1,23.3,3,46.6,5.8,69.7
				c3.3,26.3,6.6,52.8,14.2,78.2c6.7,22.3,16.6,43.6,27.4,64.2c31.1,59.7,72.1,116.9,124.6,157.9c-51.5,15.5-119.2-30.4-151.6-63.8
				c-47.7-49.3-69.2-120.3-73-187.5c-5.1-90.5,23.4-183.2,64.6-261.8C1903.1,814.7,1912.7,797.3,1923.8,781z"/>
			<path fill="#789F43" d="M1954.7,744c-10.1,9.7-18.9,20.3-27,31.5c-0.1,0.1-0.2,0.3-0.3,0.4c-0.1,0.2-0.3,0.3-0.4,0.5
				c-1.1,1.5-2.2,3.1-3.2,4.6c-7.5,20.8-14,42-19.9,63.1c-12,42.8-22.1,86.7-22,131.1c0.1,23.3,3,46.6,5.8,69.7
				c3.3,26.3,6.6,52.8,14.2,78.2c6.7,22.3,16.6,43.6,27.4,64.2c31.1,59.7,72.1,116.9,124.6,157.9c8.7-2.6,17-7,24.6-13.6
				c17.8-15.4,27.1-38.3,32.9-61.1c12.1-48,10.4-99.2-3.9-146.5c-11-36.2-32-69.2-57.4-97.1c-28.7-31.7-62.9-56.2-86-93.5
				c-36.8-59.4-35.9-138.3,0-198.1C1960.9,738.2,1957.8,741.1,1954.7,744z M1955.1,751.5c0.2-0.3,0.4-0.8,0.6-1.1
				c0.1-0.3,0.3-0.6,0.3-0.7C1956,750,1955.4,751.1,1955.1,751.5z"/>
		</g>
		<g>
			<path fill="#587722" d="M1206.1,803.1c21.5,5.3,42.7,11.7,63.6,18.5c42.2,13.9,84.3,29.8,121.2,54.6c19.4,13,37.1,28.3,54.7,43.6
				c20.1,17.4,40.2,34.8,57.1,55.3c14.9,18,27,38,38.2,58.5c32.3,59.1,57.1,124.9,62,191.3c41.5-34.2,41-116,31.2-161.5
				c-14.5-67.1-61.5-124.3-115.3-164.9c-72.4-54.6-165.3-82.3-253.5-91.8C1245.7,804.6,1225.9,802.9,1206.1,803.1z"/>
			<path fill="#789F43" d="M1145.9,811.3c69.6,3.4,135.7,46.5,164.6,110.1c18.1,39.9,19.5,81.9,29.9,123.5
				c9.2,36.6,24.9,72.4,48.9,101.7c31.3,38.2,73,68.1,119.6,84.7c22.1,7.9,46.4,12.8,69.1,6.6c9.6-2.7,17.9-7.1,25-12.9
				c-4.9-66.4-29.7-132.3-62-191.3c-11.2-20.5-23.3-40.5-38.2-58.5c-16.9-20.5-37.1-37.9-57.1-55.3c-17.6-15.3-35.3-30.6-54.7-43.6
				c-36.9-24.8-78.9-40.8-121.2-54.6c-20.9-6.9-42.1-13.3-63.6-18.5c-1.9,0-3.8,0.1-5.6,0.1c-0.2,0-0.4,0-0.6,0s-0.3,0-0.5,0
				c-13.8,0.5-27.5,2-41.2,5C1154.1,809.2,1150,810.2,1145.9,811.3z M1162.2,812.5c0.1,0.1,0.4,0.1,0.7,0.2c0.4,0,0.9,0.1,1.3,0.1
				C1163.7,812.8,1162.5,812.7,1162.2,812.5z"/>
		</g>
		<g>
			<path fill="#789F43" d="M2382.6,1208c21.5,5.3,42.7,11.7,63.6,18.5c42.2,13.9,84.3,29.8,121.2,54.6c19.4,13,37.1,28.3,54.7,43.6
				c20.1,17.4,40.2,34.8,57.1,55.3c14.9,18,27,38,38.2,58.5c32.3,59.1,57.1,124.9,62,191.3c41.5-34.2,41-116,31.2-161.5
				c-14.5-67.1-61.5-124.3-115.3-164.9c-72.4-54.6-165.3-82.3-253.5-91.8C2422.1,1209.5,2402.3,1207.8,2382.6,1208z"/>
			<path fill="#8DBB47" d="M2322.3,1216.2c69.6,3.4,135.7,46.5,164.6,110.1c18.1,39.9,19.5,81.9,29.9,123.5
				c9.2,36.6,24.9,72.4,48.9,101.7c31.3,38.2,73,68.1,119.6,84.7c22.1,7.9,46.4,12.8,69.1,6.6c9.6-2.7,17.9-7.1,25-12.9
				c-4.9-66.4-29.7-132.3-62-191.3c-11.2-20.5-23.3-40.5-38.2-58.5c-16.9-20.5-37.1-37.9-57.1-55.3c-17.6-15.3-35.3-30.6-54.7-43.6
				c-36.9-24.8-78.9-40.8-121.2-54.6c-20.9-6.9-42.1-13.3-63.6-18.5c-1.9,0-3.8,0.1-5.6,0.1c-0.2,0-0.4,0-0.6,0c-0.2,0-0.3,0-0.5,0
				c-13.8,0.5-27.5,2-41.2,5C2330.5,1214.1,2326.4,1215.1,2322.3,1216.2z M2338.7,1217.4c0.1,0.1,0.4,0.1,0.7,0.2
				c0.4,0,0.9,0.1,1.3,0.1C2340.1,1217.6,2338.9,1217.6,2338.7,1217.4z"/>
		</g>
		<path fill="#587722" d="M1582.9,1673.3c1.3-0.3-16.7-52.1-18-55.6c-23.6-64.9-64.4-112.6-117.7-156
			c-110.9-90.4-242.2-125.6-371.5-176.4c-84.3-33.2-177.4-57.5-250.3-114.6c-41.2-32.3-92.7-76.1-119.9-121.6
			c-16.5-27.6-27.7-60.9-36.1-91.8c-5-18.3-16.7-39.7-15.9-56.9c-16.7,34.1-29.9,66.7-26.3,106.8c3.2,35,22.1,65.7,47.1,89.7
			c11.2,10.8,23.7,18.6,37.1,25.8c11.8,6.4,32.9,10,42.3,20c24,25.6-45.2,40.4-14.8,66.3c13.8,11.8,45.6,20.6,63.2,25.2
			c28,7.3,54.7,9.7,83.2,11.3c10.9,0.6,41-2.6,47.9,8.6c8.9,14.4-14.6,29.7-21.9,38c-44.9,51.6,51.6,49.3,83.6,46
			c69.3-7.2,139.8-7.8,208,5.9c23.3,4.7,52,12.7,71.4,26.2c27.8,19.2,5.8,26.7-18.2,29.7c-40.7,5-85.1,0.6-124.9,9.3
			c-35,7.7-112.7,62.9-71.2,102.4c32.2,30.7,86.3,4.1,123.4-4.3c78.2-17.4,172.4-58.3,246.9-10.1c38.4,24.9,70.5,65.2,97,103.6
			c14.3,20.8,23.1,45.5,37.9,65.9C1566.9,1665.4,1581.6,1675,1582.9,1673.3z"/>
		<path fill="#587722" d="M3920.3,1327.3c-0.9,0.4-13.2-37.6-14-40.2c-14.8-48-12.1-93.5-0.3-142.1
			c24.6-101.1,85.2-179.2,137.8-265.5c34.3-56.3,77.6-111.3,94.7-176.4c9.7-36.8,20.3-84.9,16.1-123.2
			c-2.6-23.2-10.7-47.5-19.4-69.1c-5.2-12.8-7.8-30.4-15.8-40c24.7,12.4,46.6,25.5,62.2,50.4c13.5,21.7,16.1,47.8,12.1,72.7
			c-1.8,11.2-5.6,21.2-10.1,31.2c-4.1,8.9-14.7,20.2-15.7,30.2c-2.7,25.4,44,3.6,37.7,31.9c-2.8,12.9-17.4,31.9-25.6,42.4
			c-13,16.5-27.5,29.6-43.2,43.1c-6,5.2-24.9,16.5-24,26.1c1.2,12.2,21.5,10.8,29.4,12.4c48.7,10.2-8.3,51.2-28.3,63.4
			c-43.3,26.3-84.4,56.9-118,94.8c-11.5,13-24.6,30.3-29.9,46.5c-7.7,23.3,8.4,18.1,23.6,9.2c25.8-15,49.6-37.1,76.5-49.5
			c23.7-10.9,93-13,86.3,28.1c-5.2,32-48.3,40.3-73.4,51.7c-53,24.3-125.5,42-147.6,102.6c-11.4,31.3-12.2,68.8-10.7,102.7
			c0.8,18.3,6.6,36.6,7,54.8C3926.1,1315.6,3921.8,1327.7,3920.3,1327.3z"/>
		<g>
			<path fill="#0B2974" d="M1639.6,1654.2c-11.6-9.3-23.3-18.5-35.5-27.1c-11.6-8.2-24.1-15.3-36.4-22.5
				c-24.6-14.3-49.9-27.4-76-38.5c-51.5-22-106.5-36.5-162.6-37.9c-63.4-1.7-124.7,15.5-187,23.9c-56.3,7.5-112.7,4.2-167.7-10
				c-53.1-13.7-102.8-38-147.6-69.5c-5.5-3.9-11-7.9-16.3-12.1c-1.3-1-1,2.4-0.3,3.1c20.8,19.2,43,36.1,67.6,50.1
				c24,13.6,49.2,25,75.3,33.9c52,17.7,107.4,24.9,162.2,21.1c63.5-4.4,124.9-23.5,188.3-27.8c56.9-3.8,113.4,6.8,166.7,26.3
				c26.7,9.8,52.6,21.7,77.7,35.1c25,13.3,49.1,28.4,73.5,42.8c6,3.5,11.9,7,17.9,10.6C1640.1,1656.2,1640,1654.5,1639.6,1654.2z"/>
			<path fill="#0B2974" d="M790.6,1451.4c-18.3-4.2-56.5-37.2-46.9-59.9c8.7-20.6,33.3,26.9,36.4,34.4
				C782.9,1432.8,786.4,1444.3,790.6,1451.4z"/>
			<path fill="#0B2974" d="M864.3,1486.3c-7.5-12.8-30.6-37.2-6.2-46.5c19.5-7.4,13.6,15.8,10.5,25
				C866.5,1471.2,864.2,1480.1,864.3,1486.3z"/>
			<path fill="#0B2974" d="M843.8,1521.8c-16-8.5-36,7.7-52.8,3.4c-6.9-1.8-15.2-7.6-8.7-14c6.1-5.9,17.7-3.4,24.9-1.9
				C817.7,1511.6,827.8,1515.9,843.8,1521.8z"/>
			<path fill="#0B2974" d="M945.9,1520.1c-10.6-1.7-35.4-35.5-24.6-46.9c10-10.4,17.5,18.3,18.9,23.5
				C942.7,1505.8,945.3,1512.9,945.9,1520.1z"/>
			<path fill="#0B2974" d="M1013,1541.4c-10.1-2.1-18.8-9.9-23.5-19.2c-2.5-4.9-6.3-20.4,4-19.4
				C1009.5,1504.3,1000.5,1535.9,1013,1541.4z"/>
			<path fill="#0B2974" d="M917.6,1556.7c-8.2-3.2-21.3-0.2-29.1,3.5c-6.6,3.1-19.7,10.7-26.5,3.5c-15.3-16.2,29.2-16.6,36.4-14.9
				C904.8,1550.3,911.8,1554.8,917.6,1556.7z"/>
			<path fill="#0B2974" d="M987.5,1570.9c-5.8,4.4-13.8,5.2-20.2,9.5c-7.3,4.9-19.3,12-28.4,7.3c-8.8-4.5-2-11.4,4.3-14.2
				c6.5-2.9,16.1-2.4,23.1-2.7C971.9,1570.5,978.8,1572.9,987.5,1570.9z"/>
			<path fill="#0B2974" d="M1085.5,1545.4c-9.9-1.5-21.4-13.3-25.5-22.2c-2.7-5.8-1.7-14.1,6-10.1
				C1076.5,1518.5,1074.8,1539.5,1085.5,1545.4z"/>
			<path fill="#0B2974" d="M1041.5,1585.7c-8.6-0.3-20.8-0.7-28.8,3.2c-4.9,2.4-11.3,9.7-5.5,14.6
				C1019,1613.3,1031.9,1584.1,1041.5,1585.7z"/>
			<path fill="#0B2974" d="M1126.6,1538.8c-14.4,4.3-30.4-28.6-13.3-31.5C1127.1,1505.1,1120.4,1535,1126.6,1538.8z"/>
			<path fill="#0B2974" d="M1115.3,1587.8c-13,6.6-42.1,2.1-47.6,21.1c-2.2,7.8,3.6,11.6,10.7,9.5c6.8-2,12.3-8,16.4-13.2
				C1099.4,1599.3,1104.8,1595.9,1115.3,1587.8z"/>
			<path fill="#0B2974" d="M1176.9,1578.5c-3.6,2.8-54.9,14-37.1,25.8c5.3,3.5,18.3-1,22.6-4.7
				C1168.8,1594.1,1171.2,1586.4,1176.9,1578.5z"/>
		</g>
		<g>
			<path fill="#0B2974" d="M3404.6,1406.8c3.3-14.5,6.7-29,10.9-43.3c4-13.6,9.3-27,14.5-40.2c10.3-26.5,22-52.5,35.5-77.5
				c26.6-49.3,60.6-94.8,103.7-131c48.5-40.7,107.2-65.5,161.2-97.7c48.7-29.1,90.8-66.9,125-112.2c33-43.8,56.7-93.8,72.3-146.3
				c1.9-6.5,3.7-13,5.2-19.6c0.4-1.6,2.3,1.3,2.1,2.2c-4.3,27.9-11.2,55.1-21.7,81.3c-10.3,25.6-22.9,50.2-37.8,73.4
				c-29.7,46.2-68.5,86.4-113.8,117.5c-52.4,36.1-112.4,59.3-164.7,95.5c-46.9,32.4-84.5,75.9-114,124.4
				c-14.8,24.3-27.7,49.7-39,75.8c-11.3,26-20.7,52.8-30.9,79.3c-2.5,6.5-5,12.9-7.4,19.4
				C3405.4,1408.7,3404.5,1407.3,3404.6,1406.8z"/>
			<path fill="#0B2974" d="M3942.7,719.5c11.7-14.7,21.1-64.3-0.5-76.1c-19.7-10.7-9.3,41.8-7.1,49.5
				C3937.2,700.2,3941.6,711.4,3942.7,719.5z"/>
			<path fill="#0B2974" d="M3906.7,792.7c-2.1-14.7,0.8-48.2-24-40.3c-19.9,6.4-0.8,20.9,7.3,26.1
				C3895.7,782.3,3903,787.8,3906.7,792.7z"/>
			<path fill="#0B2974" d="M3944.9,807.7c7.2-16.6,33-16.4,43.4-30.2c4.3-5.7,7.2-15.4-1.9-16.3c-8.4-0.8-16,8.3-20.7,14
				C3958.9,783.5,3953.7,793.2,3944.9,807.7z"/>
			<path fill="#0B2974" d="M3863.9,870c7.2-7.9,5.6-49.9-9.9-52c-14.3-2-2.3,25.2-0.1,30.2C3857.6,856.8,3859.9,864,3863.9,870z"/>
			<path fill="#0B2974" d="M3824.7,928.5c6.7-7.9,8.5-19.5,6.4-29.7c-1.1-5.4-7.8-19.9-15.2-12.7
				C3804.3,897.2,3831.1,916.3,3824.7,928.5z"/>
			<path fill="#0B2974" d="M3908.9,881c4.4-7.6,16.6-13.4,24.9-15.4c7.1-1.7,22.1-3.9,22.9-13.8c1.9-22.2-33.2,5.2-37.7,11
				C3914.9,868,3912.2,875.9,3908.9,881z"/>
			<path fill="#0B2974" d="M3863,935.7c7.3-0.2,14-4.6,21.7-5.2c8.7-0.7,22.6-2.6,26.8-11.9c4-9-5.5-10.1-12.2-8.4
				c-6.9,1.8-14.1,8.1-19.8,12.2C3875,925.6,3871.1,931.8,3863,935.7z"/>
			<path fill="#0B2974" d="M3770.5,976.7c6.8-7.3,8.4-23.8,6.1-33.3c-1.5-6.2-7.4-12.1-11-4.2
				C3760.7,950.1,3775.2,965.5,3770.5,976.7z"/>
			<path fill="#0B2974" d="M3830,980.9c6.5-5.5,15.9-13.5,24.5-15.4c5.3-1.2,14.9,0.6,13.4,8C3864.8,988.5,3836.5,973.7,3830,980.9z
				"/>
			<path fill="#0B2974" d="M3734.2,997.1c14-5.6,6-41.3-9.2-32.9C3712.8,971,3736.7,990.3,3734.2,997.1z"/>
			<path fill="#0B2974" d="M3773.6,1028.5c14.3-2.9,34.2-24.6,50.4-13.1c6.6,4.7,4.4,11.3-2.5,14.1c-6.5,2.7-14.6,1.4-21.1-0.1
				C3793.2,1027.6,3786.8,1028.2,3773.6,1028.5z"/>
			<path fill="#0B2974" d="M3719.5,1059.5c4.6,0,51.7-23.2,45.1-2.9c-2,6-14.9,10.6-20.7,10.4
				C3735.6,1066.7,3728.9,1062.2,3719.5,1059.5z"/>
		</g>
		<g>
			<path fill="#8DBB47" d="M3367.3,1451.3c77-106.4,112.1-229.6,102.9-360.8c-2.1-21.9-4.2-42.1-7-64.8
				c-4.9-47.8-13.1-92.4-28.5-138c-22.4-62.7-47.4-121.3-80.4-180.1c-12.8-22.8-27.4-43.8-43.2-63.6
				c-72.2,70.1,13.6,283.6,33.1,352.2c23.4,82.7,42.5,156.4,15.9,240.2c-6.7,21-15.4,41.1-33.9,54.5c-16.4,11.8-31.5,7-45.5,15.8
				c19.9,38.5,1.3,94.5-12.8,131.9c-11.7,31-32.8,51.1-54.6,73c14.7-29.7,16.9-82.8,19.8-104.2c10.2-75.6,24.6-162.6-22.5-229.5
				c-36.4-51.6-79-26.8-69.9,32.6c7.6,49.8,23.2,98.5,31,148.7c10.9,70.2,12.9,140.7-6.7,209.6c-7.4,25.8-26.5,98.2-66,123.8
				c6.1-2.4,12.1-4.9,18-7.5C3216.2,1621.8,3297.2,1546.8,3367.3,1451.3z"/>
			<path fill="#789F43" d="M3435.4,1395.3c57.6-77,105-163,124.3-258.3c15.4-76.4,31-161.6,14.6-239
				c-20.8-98.4-80.9-290.4-213.1-275.7c-21.7,2.4-38.1,10.1-50.1,21.8c15.8,19.8,30.4,40.9,43.2,63.6c33,58.8,58,117.4,80.4,180.1
				c15.4,45.6,23.6,90.2,28.5,138c2.9,22.7,5,43,7,64.8c9.2,131.2-26,254.4-102.9,360.8c-70.1,95.5-151.1,170.5-250.4,233.6
				C3247.8,1627.2,3352.4,1506.1,3435.4,1395.3z"/>
		</g>
		<g>
			<path fill="#8DBB47" d="M1980.5,1335c-138.9-79.3-240-198.3-295.8-348.5c-8.7-25.3-16.6-48.9-24.8-75.5
				c-18.6-55.5-32-109.1-37.8-167.5c-6.6-80.8-8.5-158.5-1.4-240.3c2.8-31.7,8.4-62.4,15.9-92.4c115.4,41.4,127.7,321.5,140.6,407.4
				c15.6,103.5,31.5,194.9,103.2,274.5c17.9,19.9,37.8,37.9,65,43.4c24.1,4.9,38.4-8.1,58.4-5.4c-2.7,52.8,46.1,105.5,80.7,139.9
				c28.6,28.5,62.1,40.2,97.3,53.5c-31.3-25.5-60.5-83.3-74.5-105.6c-49.4-78.7-109.2-168-90.6-265.9c14.4-75.6,74.2-69.5,94,1
				c16.6,59,23.8,121,40.4,180.6c23.2,83.3,56.5,162.6,112.9,229.1c21.2,24.9,78.9,95.6,135.6,104.2c-7.9,0.4-15.8,0.7-23.8,0.8
				C2234,1448.1,2106.4,1405.6,1980.5,1335z"/>
			<path fill="#789F43" d="M1876.8,1307.1c-102.7-56.4-198.6-128-267.9-224c-55.6-77-115.7-163.7-136.5-257.8
				c-26.5-119.7-56.4-363,97.7-413.2c25.3-8.3,47.3-7.9,66.5-1.1c-7.6,30-13.2,60.7-15.9,92.4c-7.1,81.9-5.2,159.5,1.4,240.3
				c5.8,58.3,19.2,112,37.8,167.5c8.2,26.6,16.1,50.2,24.8,75.5c55.8,150.2,156.9,269.2,295.8,348.5
				c125.8,70.6,253.5,113.1,395.4,133.1C2201.6,1470,2024.6,1388.3,1876.8,1307.1z"/>
		</g>
		<path fill="#8DBB47" d="M3394.2,1527.1c4.5-12.8,10-25.3,16.9-36.9c35.8-60.9,112.8-112.8,185.7-90.2c11.2,3.5,22.1,8.6,30.8,16.6
			c8.5,7.8,15.2,19,18.9,29.9c0.3,0.9,2.2,0.6,2.3-0.3c0.8-7,0.7-14.3-2.5-20.8c-2.9-5.8-6.9-11.1-11.5-15.6
			c-10.2-9.8-23.2-16.4-36.6-20.8c-12.3-4.1-25.1-6.1-37.5-8.5c-13.7-2.7-28.2-1.3-41.9,0.3c-27.1,3.1-54.4,10.4-78.5,23.5
			c4.9-2.7,10.7-21.2,13.5-26.4c5.4-10,10.9-19.8,16.8-29.5c9.1-15.2,18.8-28.7,35.3-36.3c18.1-8.4,37.6-4.9,56.5-0.4
			c27.2,6.6,52.7,19.5,74.5,36.9c23.1,18.5,36.6,41,53.5,64.5c0-9-6.1-18.1-9.7-26.1c-4.1-9.3-5.4-19.2-11.6-27.6
			c-23.6-32.3-58.6-58.2-97.3-68.9c-19.6-5.4-39-6-59.1-6c6.9,0,16.5-15.5,20-20.2c13.6-18.6,26.7-44.4,49.1-53.8
			c40.5-16.8,72,30.1,93.4,56.7c6.1,7.6,12.1,15.4,17.5,23.5c6.5,9.5,13.7,18.5,20,28.2c6,9.2,11.8,18.6,15.1,29.2
			c3.1,10.2,5,20.7,4.9,31.4c0,0.5,1,0.4,1,0c1.1-11.6-0.2-23.2-2.9-34.5c-2.9-11.9-4.9-23.9-8.7-35.6c-3.5-10.9-8-20.6-13.8-30.3
			c-5.3-9-11.1-17.7-17.2-26.1c-12-16.8-26.4-31.3-42.9-43.7c-13.4-10.1-28.2-18.1-43.6-24.9c2.5,1.1,34.8-29.8,38.9-33
			c14.1-11.1,29.5-36.4,50.5-25c7.4,4,12.7,11,17.6,18c41.5,59.3,78.6,135.8,60.5,209.8c14.5-59.1,3.8-131.3-17.8-187.2
			c-7.6-19.8-18.4-37.9-31-54.9c-2.5-3.4-5.1-6.6-7.8-9.7c-0.3-2.5,20.9-10.5,23.3-11.5c16.2-6.6,29.9-18.9,46-24.7
			c7.9-2.9,17.2-3.2,24.4,1.2c6.9,4.2,10.8,11.9,14.1,19.3c22.4,49.4,39.7,103.5,38.1,158.2c-0.6,19.1-4.1,38.1-10.1,56.2
			c-0.3,0.8,1.4,0.8,1.6,0.2c10.3-20.1,15.8-41,21.3-62.8c5-20,7.5-40,7-60.6c-0.3-9.6-0.6-19.5-2.2-28.9
			c-1.8-10.6-4.7-21.1-7.7-31.4c-5.6-19.3-12.6-38.5-22.2-56.2c-2.4-4.4-4.8-8.8-7.5-13.1c66.5-19.1,136.2-24.8,199.6-8.5
			c173.4,44.7,186.1,245.5,116.5,383.8c-46.1,91.6-124.4,163.8-211.3,218.2c-107.3,67.2-232.9,122.1-355.5,153.7
			c-62.9,16.2-128.7,27.5-193.8,23.8c-28.7-1.7-25.7-169.9-22.9-193.2C3378.2,1593.4,3383.1,1558.9,3394.2,1527.1z"/>
		<path fill="#8DBB47" d="M1648.5,1570.2c-11.5,0.3-23-0.3-34.2-2.3c-58.8-10.1-122.9-55.4-126.8-119.7c-0.6-9.9,0.2-20,3.9-29.3
			c3.6-9,10.5-17.7,17.9-23.9c0.6-0.5-0.2-1.9-0.9-1.7c-5.8,1.5-11.5,3.7-15.7,8.2c-3.7,4-6.7,8.7-8.9,13.8c-4.7,11-6,23.3-5.5,35.1
			c0.5,11,2.7,21.6,4.5,32.2c2,11.6,7.4,22.7,12.8,33.1c10.6,20.5,24.5,39.9,42.1,55c-3.6-3.1-19.9-2.1-24.9-2.8
			c-9.5-1.3-18.9-2.7-28.3-4.4c-14.7-2.6-28.3-6.3-39.3-17c-12-11.8-15.1-28.2-17.2-44.5c-3-23.4-0.4-47.4,6.9-69.9
			c7.7-23.8,21.5-41.2,35-61.6c-7.1,2.7-12.4,10.2-17.7,15.5c-6.1,6-13.6,10-18.4,17.4c-18.5,28.3-28.5,63.7-25.3,97.5
			c1.6,17.1,6.9,32.6,13,48.5c-2.1-5.5-17.2-8.4-21.9-9.7c-18.8-5.2-43.1-7.8-57.2-22.7c-25.4-27,2.3-66,16.8-90.8
			c4.2-7.1,8.5-14.1,13.3-20.9c5.6-8,10.6-16.3,16.3-24.2c5.5-7.5,11.2-14.9,18.5-20.6c7.1-5.5,14.9-10.2,23.4-13.3
			c0.4-0.1,0-0.9-0.3-0.8c-9.5,2.6-18.3,7.1-26.4,12.7c-8.6,5.8-17.4,11.1-25.5,17.5c-7.5,6-13.9,12.5-19.8,20
			c-5.5,6.9-10.6,14.1-15.5,21.4c-9.7,14.5-16.8,30.2-21.6,47c-3.9,13.6-5.9,27.7-6.6,41.9c0.1-2.3-33.9-18.6-37.7-20.8
			c-13-7.8-37.6-12.4-34.8-32.4c1-7.1,4.9-13.4,8.9-19.3c34.4-50.6,83.8-102.8,147.7-110.6c-51,6.3-104.9,36.3-142.6,70.1
			c-13.3,11.9-24.4,25.9-34.1,40.9c-1.9,3-3.7,6-5.3,9.1c-1.9,1-14.5-13.4-16-15c-10.1-10.8-23.9-18-33.3-29
			c-4.6-5.4-7.7-12.6-6.4-19.6c1.3-6.7,6.2-12.1,11-17c32.3-32.4,69.9-62.4,113.6-77.5c15.2-5.3,31.4-8.2,47.5-8.9
			c0.7,0,0.2-1.3-0.3-1.4c-19-2.1-37.1-0.2-56,2c-17.3,2-33.8,6-49.9,12.6c-7.5,3.1-15.2,6.3-22.2,10.4c-7.8,4.6-15.3,10-22.5,15.5
			c-13.6,10.2-26.6,21.5-37.8,34.3c-2.8,3.2-5.5,6.5-8.1,9.8c-35-46.8-60.4-100.2-66.5-155.2c-16.6-150.4,138.2-220.6,268.4-207
			c86.2,9,166.7,49.2,235.7,101.6c85.2,64.7,166.2,147.5,227.9,234.9c31.6,44.8,60.3,93.4,76.8,146.1
			c7.3,23.1-126.5,71.1-145.8,75.9C1705.7,1563,1677,1569.5,1648.5,1570.2z"/>
		<path fill="#789F43" d="M2844.4,1701.8c-0.4-1.1-0.8-2.2-1.3-3.4c-10.2-24.9-29.3-45.1-49.4-63.1c-31.1-27.9-61.1-55.3-94.3-80.4
			c-18.4-14-37.3-26.7-57.1-38.6c-82.9-50.1-169.1-94.4-252.2-144.1c-63.9-38.2-124-89.4-189.8-125.5c3.4-2.1,6.7-4.2,10.5-5.7
			c6.9-2.7,13.8-4.8,21.1-6.3c15-3,30.3-3.8,45.4-2c1.5,0.2,4.2,0.5,5.6-0.2c0.4-0.2,2.3-0.7,0.7-1.2c-20.8-5.8-42.4-6.5-63.8-3.7
			c-2.4,0.3-8.7,1.2-15.9,2.6c0.9-2,1.9-3.9,3-5.8c5.5-10,13.4-21.6,24-26.8c0.1,0,0,0,0-0.1c-13.4-2.6-26.5,4.9-35.5,14.5
			c2.8-6,6-11.8,10.1-16.9c3.1-3.9,6.8-7.6,10.8-10.8c2-1.6,4.1-3,6.3-4.2c2.3-1.2,4.4-3.1,6.8-3.9c0.2-0.1-0.5-0.1-0.6-0.1
			c-11.6,2.2-22.4,5.6-31.2,13.6c2.9-5.5,6.3-10.8,10.4-15.5c2.8-3.2,5.6-6.4,8.9-9.1c3.2-2.6,5.8-5.9,10-6.8c0.1,0-0.1,0-0.1,0
			c-11.4,1.3-21.5,3.8-30.9,10.7c-3.2,2.3-6.1,5-8.8,7.8c7.4-14.7,17.4-28.4,29.9-38.6h-0.1c-19.8,14.5-33.7,33.3-42.6,55.8
			c-2.2,3.4-4.1,6.9-5.9,10.5c-1-10.1-2.1-20.2-5.2-29.9c-3.4-10.6-8.5-23.6-18.1-29.9c0,0-0.4-0.1-0.4,0c-1,4.7,2.1,9.9,3.4,14.4
			c1.5,5.4,2.5,10.9,2.9,16.5c0.4,4.8,0.3,9.6,0.1,14.5c-0.8-1.8-1.7-3.6-2.7-5.3c-3.9-6.8-10-10.5-15.1-16.2h-0.1
			c1.2,1.5,2.2,2.7,2.8,4.5s0.1,3,0.3,4.8c0.3,2.9,1.9,5.8,2.5,8.7c1.6,6.9,1.3,13.8,1.3,20.8c0,4.1-0.2,8.2-0.5,12.3
			c-62.7-19-127.2-10.9-192.8-9.5c-62.7,1.4-124.8,7-185.9,21.4c0.9-4.3,1.9-8.5,2.9-12.7c0.6-2.5,1.6-5,2.3-7.5
			c0.7-2.7,0-5.1,1.1-7.8c0,0-0.3-0.1-0.4,0c-3.1,2.7-6.9,4.6-9.8,7.5c-2.5,2.4-4.7,5.4-6.8,8.2c-1.8,2.4-3.4,4.9-4.8,7.5
			c-0.5-14.7,1.1-29.6,6.6-43.4h-0.1c-6.9,13-11.5,26.7-14.6,40.9c-2.8-20.6-5.2-41.5-4.7-62.3h-0.1c-3.2,21.9-6,43.7-5.5,65.9
			c0,0.3,0,0.7,0,1c-0.2-0.9-0.4-1.8-0.6-2.7c-4.2-16.9-10.9-32.6-18.9-48.1c0-0.1-0.4,0-0.4,0c3.6,15.9,6.4,32.1,9.6,48.1
			c0,0.1,0,0.3,0.1,0.4c-2.7-4.1-5.5-8.1-8.4-11.9c-2.6-3.5-5.3-6.8-8.1-10.1c-3.4-4-7.5-7.2-10.9-11.3h-0.1c3,4.1,4.4,8.6,6.7,13.1
			c1.7,3.4,3.4,6.8,4.9,10.3c3.4,7.6,6.2,15.5,8.5,23.5c0.5,1.8,1,3.6,1.5,5.3c-43.1,14.4-83.8,35.5-122.1,60.2c-2-4-4-8-5.8-12.1
			c-8.5-19-16.5-38.6-21.2-58.9h-0.1c2.9,21.1,6.3,42,13.3,62.2c0.5,1.5,1.1,3.1,1.7,4.6c-2.3-3.9-4.6-7.7-7-11.6
			c-6.5-10.6-12.5-21.5-18.3-32.5c-5.9-11.2-12.2-22.5-16.9-34.2h-0.1c2.8,12.2,4.9,24.5,8.5,36.6c3.6,12.2,7.9,24.2,12.7,36
			c0.6,1.5,1.3,3.1,2,4.6c-2-2.3-4-4.6-6-6.8c-16.1-18-32.7-37.3-53.2-50.4c0,0-0.4,0.1-0.4,0.2c10.1,18.1,25.3,33.4,37.6,50
			c1.5,2,3,4.1,4.5,6.1c-5.6-3.6-11.2-7.1-17-10.4c-4.2-2.4-8.4-4.6-12.7-6.6c-6-2.7-11.6-4-18.2-5c0,0-0.4,0.1-0.4,0.2
			c1.6,2.3,3,4.4,5.2,6.1c3.5,2.5,7.3,4.8,10.9,7.2c7.2,4.8,14.5,9.8,20.6,16c1.6,1.6,3.1,3.2,4.6,4.8c-8.1-3.9-16.6-6.6-25.7-6.9
			c-11.1-0.4-21.3,3.3-32,4.9h-0.1c2.6-0.2,5.2,0.8,7.8,1c4,0.4,7.9,0.9,11.8,1.6c9.7,1.7,18,6.2,25.9,12
			c6.6,4.8,12.8,10.1,18.8,15.6c-6.1,4.6-12.1,9.3-18.1,14c-62.4,49.4-120.5,104.3-179.8,157.4c-64.5,57.7-128.2,116.2-191.8,175
			c-23.1,21.3-46.8,42.1-69.2,64.2c-18.9,18.7-43.8,32.2-59.7,54c-13.7,18.8-19.6,45.2-8.4,65.6c10.4,18.8,32,27.9,52.1,35.3
			c230.3,85.1,472.6,126.4,717.7,132.1c98.4,2.3,196.8-2.8,294.7-11.8c245.7-22.6,669.2-29.6,878.4-166
			C2993.7,1835.3,2861.1,1747.4,2844.4,1701.8z"/>
		<path fill="#789F43" d="M3624.2,1745.6c-0.2-0.6-0.5-1.3-0.7-1.9c-5.7-14-16.5-25.4-27.8-35.5c-17.5-15.7-34.4-31.1-53-45.2
			c-10.4-7.9-20.9-15-32.1-21.7c-46.6-28.1-95-53-141.7-81c-35.9-21.5-69.7-50.2-106.7-70.6c1.9-1.2,3.8-2.4,5.9-3.2
			c3.9-1.5,7.8-2.7,11.9-3.5c8.4-1.7,17-2.1,25.5-1.1c0.8,0.1,2.4,0.3,3.2-0.1c0.2-0.1,1.3-0.4,0.4-0.7c-11.7-3.3-23.8-3.6-35.9-2.1
			c-1.4,0.2-4.9,0.6-8.9,1.5c0.5-1.1,1.1-2.2,1.7-3.3c3.1-5.6,7.6-12.1,13.5-15.1l0,0c-7.5-1.5-14.9,2.8-20,8.1
			c1.6-3.4,3.4-6.6,5.7-9.5c1.8-2.2,3.8-4.3,6.1-6c1.1-0.9,2.3-1.7,3.5-2.4c1.3-0.7,2.5-1.7,3.8-2.2c0.1,0-0.3-0.1-0.4-0.1
			c-6.5,1.3-12.6,3.1-17.6,7.6c1.6-3.1,3.6-6.1,5.9-8.7c1.6-1.8,3.1-3.6,5-5.1c1.8-1.5,3.3-3.3,5.6-3.8l0,0
			c-6.4,0.7-12.1,2.2-17.4,6c-1.8,1.3-3.4,2.8-4.9,4.4c4.2-8.3,9.8-16,16.8-21.7h-0.1c-11.1,8.1-18.9,18.7-24,31.4
			c-1.2,1.9-2.3,3.9-3.3,5.9c-0.5-5.7-1.2-11.4-2.9-16.8c-1.9-6-4.8-13.2-10.2-16.8h-0.2c-0.6,2.7,1.2,5.6,1.9,8.1
			c0.9,3,1.4,6.2,1.6,9.3c0.2,2.7,0.2,5.4,0,8.1c-0.5-1-1-2-1.5-3c-2.2-3.8-5.6-5.9-8.5-9.1h-0.1c0.7,0.8,1.2,1.5,1.6,2.5
			c0.3,1,0,1.7,0.2,2.7c0.2,1.6,1,3.3,1.4,4.9c0.9,3.9,0.8,7.7,0.7,11.7c0,2.3-0.1,4.6-0.3,6.9c-35.2-10.7-71.5-6.1-108.3-5.3
			c-35.2,0.8-70.2,3.9-104.5,12c0.5-2.4,1.1-4.8,1.6-7.2c0.4-1.4,0.9-2.8,1.3-4.2c0.4-1.5,0-2.9,0.6-4.4h-0.2
			c-1.8,1.5-3.9,2.6-5.5,4.2c-1.4,1.4-2.6,3-3.8,4.6c-1,1.4-1.9,2.8-2.7,4.2c-0.3-8.3,0.6-16.6,3.7-24.4h-0.1
			c-3.9,7.3-6.5,15-8.2,23c-1.6-11.6-2.9-23.3-2.7-35h-0.1c-1.8,12.3-3.4,24.6-3.1,37c0,0.2,0,0.4,0,0.6c-0.1-0.5-0.2-1-0.4-1.5
			c-2.3-9.5-6.1-18.3-10.6-27h-0.2c2,9,3.6,18,5.4,27c0,0.1,0,0.1,0,0.2c-1.5-2.3-3.1-4.5-4.7-6.7c-1.5-1.9-3-3.8-4.5-5.7
			c-1.9-2.3-4.2-4.1-6.1-6.3h-0.1c1.7,2.3,2.5,4.9,3.8,7.4c1,1.9,1.9,3.8,2.8,5.8c1.9,4.3,3.5,8.7,4.8,13.2c0.3,1,0.6,2,0.8,3
			c-24.2,8.1-47.1,19.9-68.7,33.8c-1.1-2.3-2.2-4.5-3.3-6.8c-4.8-10.7-9.3-21.7-11.9-33.1h-0.1c1.6,11.9,3.5,23.6,7.4,35
			c0.3,0.9,0.6,1.7,0.9,2.6c-1.3-2.2-2.6-4.3-3.9-6.5c-3.6-6-7-12.1-10.3-18.3c-3.3-6.3-6.9-12.6-9.5-19.2h-0.1
			c1.6,6.9,2.8,13.8,4.8,20.6c2,6.9,4.5,13.6,7.2,20.3c0.4,0.9,0.7,1.7,1.1,2.6c-1.1-1.3-2.3-2.6-3.4-3.8c-9-10.1-18.4-21-29.9-28.3
			l-0.2,0.1c5.7,10.1,14.2,18.8,21.1,28.1c0.9,1.1,1.7,2.3,2.5,3.5c-3.1-2-6.3-4-9.5-5.8c-2.3-1.3-4.7-2.6-7.2-3.7
			c-3.4-1.5-6.5-2.3-10.2-2.8l-0.2,0.1c0.9,1.3,1.7,2.5,2.9,3.4c2,1.4,4.1,2.7,6.1,4.1c4.1,2.7,8.2,5.5,11.6,9
			c0.9,0.9,1.7,1.8,2.6,2.7c-4.5-2.2-9.4-3.7-14.5-3.9c-6.2-0.2-12,1.9-18,2.8l0,0c1.4-0.1,2.9,0.4,4.4,0.6c2.2,0.2,4.4,0.5,6.7,0.9
			c5.5,1,10.1,3.5,14.6,6.7c3.7,2.7,7.2,5.7,10.6,8.8c-3.4,2.6-6.8,5.2-10.2,7.9c-35.1,27.8-67.8,58.6-101.1,88.5
			c-36.3,32.5-72.1,65.3-107.8,98.3c-13,12-26.3,23.7-38.9,36.1c-10.6,10.5-24.6,18.1-33.6,30.4c-7.7,10.6-11,25.4-4.7,36.9
			c5.8,10.6,18,15.7,29.3,19.9c129.5,47.8,265.7,71,403.4,74.2c55.3,1.3,110.6-1.6,165.7-6.6c138.1-12.7,376.1-16.6,493.7-93.3
			C3708.1,1820.6,3633.6,1771.2,3624.2,1745.6z"/>
	</g>
	<g>
		<g>
			<g>
				<ellipse fill="#587722" cx="1872.7" cy="2286.3" rx="324.1" ry="52.8"/>
				<g>
					<path fill="#FFBEA4" d="M2217.3,1625.5c-0.2-7.5-1.5-15.3-5.9-21.3c-7-9.8-19.4-8.6-30.1-9.8c-17.6-2-29.3-15.4-45.6-0.3
						c-5.4,5.1-9.9,11-13.5,17.4c-2.5,1.9-4.7,4.2-6.7,6.3c-6.2,6.7-11.2,14.8-14.8,23.3c-7.1,16.8-9.2,35.2-8.2,53.4
						c1.2,19.5,6.4,38.5,10,57.6c3.7,19.6,4.3,38.5-1.6,57.7c-6,19.3-13.8,37.8-18.3,57.6c-14.3,64.4-9.4,131.4-20.5,196.4
						c0,0.3-0.1,0.5-0.1,0.8c19,7.6,38.8,12.1,58.6,10.1c0.4-1.3,0.8-2.5,1.2-3.8c22.7-71.3,40.1-144,55.5-217.2
						c7.8-36.9,16.2-73.8,22.3-111c3-18.4,6.2-36.7,8.6-55.2C2211,1667,2217.8,1646.5,2217.3,1625.5z"/>
					<path fill="#FFBEA4" d="M2256.7,1342c-1-15.9-3.2-31.7-7.3-47.1c-9.6-36.2-39.6-97.8-86.4-82.4c-17.6,5.8-28.8,23.6-36.8,39.2
						c-12.9,25-22.3,52.3-29,79.6c-26.9,109.2-13.5,222.9-3.2,333.4c3.4,36.1,4.7,131.5,67.5,100.4c31.5-15.5,43.2-52.3,49.6-84.3
						c5.8-29.1,11.1-58.4,16.3-87.6C2241.8,1511.5,2262,1425.4,2256.7,1342z"/>
					<path fill="#FFFFFF" d="M2050,2192.9c-4.3-3.4-7.1-7.9-8.9-13.2c1.8-8.1,3.6-16.3,5.4-24.4c2.4-10.9,4.1-21.9,7.3-32.5
						c0.7-13.6,2.7-27,5.1-40.4c18.5,7,38,9.5,57.7,4.3c-5.7,17.3-11.8,34.5-18.2,51.6c-2.3,10.9-5.8,21.6-7.4,30.2
						c-1.7,9.2-2.5,18.2-2.3,27.2C2075.8,2192,2060.7,2201.3,2050,2192.9z"/>
					<path fill="#333333" d="M2041.1,2179.8c1.8,5.2,4.7,9.8,8.9,13.2c10.6,8.4,25.8-1,38.8,2.8c0.2,9.1,1.5,18.1,3.9,27.2
						c4.3,16.5,12,32,16.1,48.5c1.6,6.4,1.9,14.5-3.2,19.5c-5.7,5.5-12.5,1.8-18.2-1.8c-12.8-8.1-22.3-21.8-29.9-34.7
						c-4.1-6.9-7.7-14-11.2-21.2c-3.6-7.4-7.7-14.9-9.1-23.1c-1.4-8.7,0.9-17.2,2.8-25.7C2040.4,2183,2040.7,2181.4,2041.1,2179.8z"
						/>
					<path fill="#FFBEA4" d="M2058.9,2082.5c1-5.9,2.1-11.9,3.1-17.8c19,7.6,38.8,12.1,58.6,10.1c-1.3,4-2.6,8-3.9,12
						C2096.9,2092,2077.4,2089.5,2058.9,2082.5z"/>
					<path fill="#333333" d="M2290.5,1414c3.1,45.8,0.2,91.3-5.2,137.9c-4.9,42,1.4,101-39.8,127.1c-48.1,30.5-161.7,33-189.8-28
						c-6.9-15-5.3-33-3.3-48.9c9.7-75.9,24.9-151.1,45-224.9c13.4-49.3,29.5-151.4,102.2-141.1c57,8,73.2,67.5,82.7,115.5
						C2286.4,1372.7,2289.1,1393.4,2290.5,1414z"/>
					<g>
						<path fill="#333333" d="M2490.9,690.8l-904.8-167.6l2.2-11.6l904.6,168.6c2.9,0.5,4.9,3.4,4.3,6.3
							C2496.6,689.4,2493.8,691.3,2490.9,690.8z"/>
						<path fill="#333333" d="M1588.3,511.5c-17.9-1.1-81.7,64.6-59.7,94.8C1550.6,636.5,1581.8,573.9,1588.3,511.5z"/>
					</g>
					<path fill="#EBAF97" d="M2419.4,671c-2.6,11-10.9,18.6-18.3,26.5c-8,8.5-15.5,17.9-24.2,25.6c-7.1,6.4-17.8,6.9-24.2-0.5
						c-3.6-4.1-0.8-12.2-1.4-17.1c-0.9-6.5-3.3-12.7-5.7-18.8c-2.3-5.6-2.9-10.5-1.5-16.4c1.4-6.1,2.6-11.8,2.7-18.2
						c0.2-8.7,3.1-17.9,12-21.2c9.3-3.5,20.1-0.7,29.6,0.6c5.8,0.8,11.6,1.7,17.3,2.8c4.7,0.9,7.5,2.1,9.4,6.7
						C2419,650.2,2421.7,661.1,2419.4,671z"/>
					<path fill="#83EBF7" d="M2091.8,806.2c-9.5-5.1-19.1-10.2-28.7-15.1c-36.3-18.6-74.1-35.4-115-40c-9.5-1.1-19.3-1.8-28.4,2
						c-22.8,9.5-21.7,50.8-20.6,71c0.5,10,3.4,20.1,9.9,27.7c11.8,13.8,31,11.2,47.4,12.1c19.9,1.1,39.8,2.5,59.3,6.2
						c15.4,2.9,30.5,6.6,45.6,10.6c0.8-10.6,2.3-21.2,4.9-31.9C2069.7,831.6,2078.4,816.8,2091.8,806.2z"/>
					<path fill="#EBAF97" d="M2386.4,695c-0.2-3.8-2.6-6.2-6.2-4.7c-19.9,7.8-35.1,24.8-50.5,38.9c-16.9,15.6-33.8,31.2-50.8,46.9
						c-16.6,15.4-32.9,31.2-50.1,46c-14.9,12.8-31.4,22.7-51.7,21.1c-21.1-1.7-40.9-13.4-59.2-23c-8.7-4.6-17.4-9.2-26.1-13.9
						c-13.3,10.6-22,25.4-25.5,42.6c-2.5,10.7-4.1,21.3-4.9,31.9c21.4,5.7,42.6,12,64,17.7c9.1,2.5,18.2,4.8,27.4,7
						s19.2,4.5,28.7,2.6c18.6-3.8,33.8-18.4,47.3-30.8c29.2-26.8,56.7-55.5,85.4-82.9c16-15.2,32.4-30,47.8-45.9
						C2375.9,734,2387.5,715.7,2386.4,695z"/>
					<path fill="#FFBEA4" d="M2148.7,1242.7c-5.3-6.8-11.9-12.8-19.4-17.7c-90.7-59.6-133.4,40.4-160.8,113.9
						c-37.6,100.8-49.3,206-51.7,312.9c-0.7,30.5-18.6,245.9,59.8,187.1c10.9-8.2,19.2-20.1,26.9-31.3
						c42.7-62.6,51.8-140.7,82.4-208.8c32.6-72.5,72-143.3,84.9-222.7C2177.7,1332.1,2177.5,1279.6,2148.7,1242.7z"/>
					<path fill="#FFBEA4" d="M1995.6,1775c-1.6-20.8-9.5-48.3-35.9-41.1c-17.7,4.8-30.4,18.6-44.9,29
						c-25.4,18.2-53.7,31.5-78.7,50.4c-23.9,18.1-46.2,39.6-65,62.1c-16.3,19.5-32.7,38.9-48.9,58.6c-0.7,15.4,2.8,31.1,8.3,45.4
						c6,14.7,16.5,26,29.4,34.8c42.3-35.1,83-72.4,123-107.5c14.1-12.4,28-25.2,43.5-36c13.1-9.2,28.1-14.9,41.2-24
						c16.3-11.5,25.1-32,27.6-52.3C1995.9,1787.7,1996.1,1781.2,1995.6,1775z"/>
					<path fill="#FFBEA4" d="M1730.5,1979.3c-5.4-14.3-9-29.9-8.3-45.4c-2.5,3.1-5.1,6.1-7.6,9.2c0,8.4,0.8,17,0.4,24.5
						c0,18.4,7.8,37.8,23.3,50.5c2.9,2.3,6,4.4,9,6.4c4.2-3.4,8.4-6.9,12.6-10.3C1747,2005.3,1736.5,1994,1730.5,1979.3z"/>
					<path fill="#FFFFFF" d="M1715,1967.7c0.4-7.6-0.3-16.1-0.4-24.5c-27.2,33.1-53.8,66.7-78.1,101.7
						c-8.3,11.9-21.8,24.1-31.2,37.7c3.8,15.8,14.4,29.3,29.6,29.6c0.4-3.1,1.1-6.1,2.6-9c7.1-4.5,13.2-8.9,16.5-10.9
						c32.2-20.2,63.2-43.3,93.3-67.7c-3.1-1.9-6.1-4-9-6.4C1722.8,2005.5,1715,1986.1,1715,1967.7z"/>
					<path fill="#333333" d="M1605.3,2082.5c-0.8,1.2-1.6,2.4-2.4,3.7c-4,3.6-8.5,6.7-12.5,10.4c-4.7,4.3-8.8,9.2-10.7,15.4
						c-2.2,6.8-0.9,13.1,1.1,19.7c4.6,15.7,9.3,31.4,13.9,47c3.9,13.1,7.2,26.4,18.3,35.4c9.4,7.5,21.5,11.3,33.5,10.8
						c13.6-0.6,20.6-15.1,12.5-26.2c-4.5-6.1-9.8-11.7-14.7-17.5c-2.2-2.6-4.5-5.3-5.9-8.3c-1.7-3.6-1.9-7.7-2.1-11.6
						c-0.4-11.2-1.3-22.3-1.4-33.5c-0.1-5.3-0.4-10.5,0.2-15.6C1619.7,2111.9,1609.1,2098.3,1605.3,2082.5z"/>
					<path fill="#333333" d="M2178.6,1352.4c-0.1,15-0.9,30-1.8,45c-3.9,61.7-20,122.3-37.9,181.3c-4.3,14.4-8.8,28.7-13.3,43
						c-4.1,13-7.1,27.8-17.2,37.8c-10.3,10.2-25.9,9.1-39.4,10.2c-15.9,1.3-31.9,2.4-47.9,3c-29.7,1-59.5,0.1-88.6-5.9
						c-27.6-5.7-55.1-15.2-77.8-32.4c-3.8-2.9,0.9-15,5.4-13c0.2-0.4,0.4-0.7,0.5-0.9c1.2-1.9,2.4-3.8,3.6-5.8
						c2.3-3.8,4.5-7.8,6.8-11.6c4.2-7,8.2-14.1,11.9-21.5c7.6-15.4,14.1-31.3,19.7-47.5c21.1-60.7,32.4-124.4,53.9-185
						c10.6-30,23.9-59.4,41.7-85.8c9.6-14.2,20.2-27.8,32.9-39.5c2.1-2,4.6-4.2,7.2-6.4c6.8-7.4,15-13.6,24-16.1
						c7.8-2.1,15.7,0.2,23.2,2.6c8.2,2.6,16.3,5.3,24.3,8.6c14.8,6,31,8.4,43.6,19.1c20.5,17.5,22.8,48.3,23.5,73.3
						C2177.4,1320.6,2178.7,1336.5,2178.6,1352.4z"/>
					<path fill="#83EBF7" d="M2280.5,1270.2c-1.2-14.5-2.9-27.5-3.3-30.2c-10.7-75.6-32.6-152.1-70.5-219.5
						c-49.8-88.5-132-154.4-217.9-205.9c-8-4.8-16.2-9.5-24.4-14.1c-8.2-4.5-16.4-9.3-25.8-10.5c-20.4-2.5-32.1,19.4-38.3,35.6
						c-10.8,28.4-11.6,57.1-43.8,69.5c-16,6.2-32.5,10.9-45.4,22.8c-16.3,15-24.6,37.2-20.3,59c0.4,4.1,1.1,8.2,2,12.3
						c3.8,17.5,13.2,33.5,24.3,47.4c20.8,26.2,49.6,44.9,80.7,56.7c15.9,6.1,31.8,10.2,48.7,11.4c3.5,0.3,6.9,0.4,10.2,1.7
						c0.2,0.1,0.3,0.1,0.5,0.2c-5.1,5.4-10.5,11-13.5,17.9c-2.8,6.2-4.8,15.2-0.5,21.3c2.3,3.3,6.9,3.6,10.6,4.7
						c4.9,1.5,9.7,3.1,14.5,4.9c8.7,3.4,17.1,7.6,25.2,12.3c8.7,5.1,18.6,10.7,25.5,18.2c0.4,0.5,0.9,1.3,1.4,2.2
						c-3,2.5-5.9,5.1-8.7,7.9c-15.2,15.1-27.2,33.4-34.7,53.5c-0.9,2.4-4.4,15.6,2.7,14.4c78.2-13.6,159.4-5.8,233.6,22.2
						c20.9,7.9,41.1,17.4,60.6,28.3C2282.7,1319.7,2282.3,1293.2,2280.5,1270.2z"/>
					<path fill="#83EBF7" d="M2002.1,877.9c-7.7,1.2-15.5,2.3-23.2,3.3c-25.9,3.2-52,4.4-77.6,9.1c-24.3,4.4-49.4,11.8-68.6,28.2
						c-10.5,9-18.9,20.7-22.2,34.3c-4.8,19.8,0.4,44.3,13.2,60.1c28.2,34.7,91.2,23.2,130.1,18.8c29.1-3.3,58.7-6.6,86.4-16.1
						C2004.3,977.7,1982.6,927.1,2002.1,877.9z"/>
					<path fill="#FFBEA4" d="M2415.3,696.9c-5.3-2.5-11.1,0.5-15.4,3.5c-5,3.5-9.5,7.8-14.2,11.7c-5.7,4.6-11.5,9.2-17.4,13.6
						c-22.2,16.7-44.2,33.6-66.9,49.6c-23.1,16.4-47.1,29.7-73.5,40c-26.8,10.4-54.3,19.4-81.8,28c-47.1,14.7-95.2,27-144,34.7
						c-19.5,49.2,2.2,99.8,38.1,137.8c0.5-0.2,0.9-0.3,1.4-0.5c29.3-10.3,57.6-23.5,86-35.9c6.7-2.9,13.3-5.8,20-8.7
						s13.8-5.1,20.5-8c13.4-5.7,25.7-13.6,37.8-21.7c11.6-7.8,23.3-15.6,35.1-23.1c12.1-7.7,24.3-15.1,35.7-23.8
						c20.3-15.5,38.5-33.7,55.4-52.9c17.2-19.6,32.9-40.4,48.5-61.3c8.4-11.3,16.8-22.6,24.4-34.5c6.9-10.7,16.7-23.9,16.5-37.3
						C2421.4,703.5,2419.7,699,2415.3,696.9z"/>
					<path fill="#FFBEA4" d="M1915.8,841.1c-2-13.5-7.4-26.1-15.2-37.3c-1.3-1.8-2.6-3.6-4.1-5.3c0-0.1,0-0.3-0.1-0.4
						c-2.1-6.6-4.3-13.2-6.4-19.8c-1.4-4.2-2.9-10.3-7.6-12.2c-3.9-1.6-6.5,3.4-7.1,6.5c-0.3,1.4-0.4,2.8-0.3,4.2
						c-11.6-9.1-25.2-14.2-39.8-5.5c-18,10.7-39.4,36.7-33.7,59.2c0.8,3,2,5.9,3.5,8.7c-2.3,0.2-4.5,1.1-6,3.1
						c-3.2,4.1-3.2,9.6,0.7,13.2c5.4,4.9,12.6,6.5,19.5,7.7c3.1,0.6,6.2,1,9.4,1.4c1.9,0.3,3.8,0.7,5.7,1.3
						c10.8,6.3,22.4,11.3,31.5,14.9c11.8,4.7,27.9,11.8,38.7,1.8C1915.7,872.4,1918,855.5,1915.8,841.1z"/>
					<path fill="#333333" d="M1889.2,804.7c-13.1,13.3-27.8,26.2-44.1,35.5c-12.2,7-26.9,10.2-38.4,2.3c-3.1-0.3-5.5-1.7-7.7-4.6
						c-5.7-7.4-11.1-15.9-13.2-25.2c-4.3-18.9,2.8-40,18.6-51.6c14.6-10.7,35.5-12.9,52.6-7.8c4.1,1.2,8,3.1,11.1,6.1
						c3.3,3.1,5,7.4,7.1,11.4c4.7,8.8,10.2,17,16.5,24.7C1894,798.1,1891.1,802.8,1889.2,804.7z"/>
					<path fill="#FFBEA4" d="M2449.8,684.1c-2.9,9-5.6,19.1-10.5,27.2c-3.8,6.3-10.1,9.5-16.1,13.4c-10.8,6.8-27.4,22.9-41.1,14.9
						c-6.6-4.2-3-15.1-1.1-20.8c3-9.2,2.5-18.3,1.8-27.9c-0.7-10.8-3.3-21.8,0.2-32.4c2.3-7.2,6.9-14.3,14.2-17.1
						c8.4-3.2,18.7,0,26.8,2.8c8.4,2.9,17.3,7.9,23.6,14.3C2455,665.7,2452.6,675.3,2449.8,684.1z"/>
				</g>
			</g>
			<g>
				<g>
					<path fill="#FF3E49" d="M3161.5,886.5c-11.2-14.1-29-22.3-48.6-17.8c-12.2,2.8-25.6,9-32.5,19.9c-7.3,11.6-2.5,24.3,6.1,33.6
						c4.4,4.9,10,7.7,14.8,12c4.8,4.2,7.7,10.6,11.7,15.6c7.2,9.2,19.1,13.9,30.6,12.3c20.5-2.9,30-22.4,29.9-41.4
						C3173.4,908,3168.9,895.9,3161.5,886.5z"/>
					<path fill="#FF3E49" d="M3223.2,980.6c-1,3.6-10.3,0.7-13-0.8c-5.2-2.9-4.5-7.7-4.5-13.1c0-13.6,4.5-27.1,5.3-40.7
						c0.5-8.5-3.6-22.8-11.1-27.7c-7.2-4.8-16.7-3.4-24.2-0.7c-7.4,2.8-16.2,1.5-21-5.7c-5.2-7.7-0.9-12.7,5.1-18.4
						c9.9-9.4,23.1-21.7,37.6-21.2c11.4,0.4,32.1,6.1,37.2,17.7c5.3,12.1,2.7,33.4-1.9,45.3c-5,13.1-12.7,26.5-14.2,40.4
						c-0.6,5.9-3.5,20.3,3.5,23.3C3222.1,978.2,3222.4,977.9,3223.2,980.6z"/>
				</g>
				<ellipse fill="#587722" cx="3083.9" cy="2286.3" rx="324.1" ry="52.8"/>
				<g>
					<polygon fill="#FF3E49" points="2809.2,2267.6 2782,1168.1 2787.4,1168 2820.6,2267.3 					"/>
					<path fill="#FF3E49" d="M2618.5,1276.9c0,0,170.7,52.2,170.5,47.7c-0.1-4.5,0-181,0-181L2618.5,1276.9z"/>
					<path fill="#FFBEA4" d="M3067.8,1481c-74.3-11.4-88.3,143.9-95.2,190.7c-6.7,45-10.7,90.3-12,135.8
						c-0.6,23.3-0.4,46.6-0.9,69.9c-0.4,22.3-1.9,44.5-4.2,66.6c-4.7,44.8-12.3,89.1-18.2,133.8c-1.7,12.7-3,25.4-4.1,38.1
						c22.3,8.2,49.5,2,73,1.3c1.6-0.1,3.3-0.2,5-0.4c0.1-0.3,0.2-0.6,0.2-0.9c9.9-36.2,16.2-73.5,18.7-111
						c2.7-39.7,1.5-79.5,4-119.2c2.4-37.9,9.6-74.6,20.6-111c11.3-37.5,63.6-145.6,64.9-219.9
						C3120.1,1516.5,3107.1,1487.1,3067.8,1481z"/>
					<path fill="#FF3E49" d="M3003.5,2142.1c2.7-8.4,5.3-16.8,7.6-25.3c-1.7,0.2-3.3,0.3-5,0.4c-23.5,0.7-50.6,6.9-73-1.3
						c-0.6,7.1-1.2,14.2-1.7,21.4C2953.4,2145.8,2979.6,2147.6,3003.5,2142.1z"/>
					<path fill="#0B2974" d="M2924.5,2263.3c-3.5-11-10.3-15.1-18.3-15.4c-0.7,0.9-1.5,1.8-2.2,2.7c-8.3,9.6-18.2,17.6-29.2,24
						c-6.2,3.6-42.2,15.2-40.5,23.7c1.5,7.5,19.5,4.8,24.9,4c10.6-1.5,21.2-3.5,31.8-4.8c15.5-1.9,31.1-2.9,46.7-3.2
						c8.5-0.2,26.1,2.5,24.3-11.7c-1-7.8-1.1-15.6-0.4-23.3C2949.3,2261.6,2936.8,2262.8,2924.5,2263.3z"/>
					<path fill="#FFFFFF" d="M2924.5,2263.3c12.2-0.5,24.7-1.7,37-4.2c0.7-7.8,2.1-15.5,4.1-23c9.2-14.3,15.9-36.7,20.4-47.2
						c6.5-15.3,12.4-30.9,17.5-46.8c-23.9,5.5-50,3.7-72-4.9c-1.4,19.1-2.4,38.3-3.4,57.4c-1.8,10.3-3.5,20.2-7.7,29.9
						c-3.6,8.4-8.4,16.2-14.1,23.3C2914.2,2248.2,2921,2252.3,2924.5,2263.3z"/>
					<path fill="#FFBEA4" d="M3314.5,2135.1c17-4.3,33.3-8.5,46.4-22c-6.2-34.9-13.6-69.5-23.8-103.4
						c-19.4-64.3-52.7-123.3-79.8-184.5c-35.3-79.7-21-163.2-28.6-246.9c-4.3-47.1-16.3-141.5-83.5-133.1
						c-36.6,4.6-54.8,55.4-57.2,87.2c-2.8,38.6,7.1,78,17.9,114.8c15.4,52.4,34.7,103.6,55.3,154.1c19.6,48,42.5,94.5,63.2,142
						c20.9,48,41.4,96.1,60.7,144.7c6.5,16.3,12.7,32.8,19,49.2C3307.7,2136.9,3311.3,2136.1,3314.5,2135.1z"/>
					<path fill="#FF3E49" d="M3363.6,2128.6c-0.9-5.2-1.8-10.4-2.7-15.5c-13.1,13.5-29.3,17.8-46.4,22c-3.2,1-6.8,1.8-10.5,2.1
						c2.2,5.7,4.3,11.3,6.5,17c18.9-2.7,38.1-9,54-19.4C3364.2,2132.7,3363.9,2130.7,3363.6,2128.6z"/>
					<path fill="#0B2974" d="M3343.2,2265.1c-0.8,0.3-1.6,0.5-2.5,0.7c-0.3,0.8-0.6,1.7-1,2.5c-5.6,12.7-18.1,19.5-29,26.8
						c-2.9,2-25.7,19.4-10.8,17.6c7.7-0.9,15.1-3.1,22.5-5.2c20.1-5.7,40-11,59.2-19.4c6-2.6,10.1-5.7,12.2-9.4
						c2.9-5.2,2-11.5-3.1-19.4c-6.2,4.2-12.9,7.6-19.6,10.4C3362,2273.2,3353,2262.4,3343.2,2265.1z"/>
					<path fill="#FFFFFF" d="M3372.8,2188c-2.5-17.8-5.2-35.5-8.2-53.2c-16,10.5-35.2,16.7-54,19.4c2.9,7.4,5.7,14.8,8.7,22.1
						c10.2,25.3,31.9,61.1,21.4,89.5c0.9-0.2,1.7-0.4,2.5-0.7c9.9-2.7,18.8,8.1,27.8,4.5c6.7-2.8,13.5-6.2,19.6-10.4
						c0,0,0-0.1-0.1-0.1C3376.8,2237.8,3376.2,2212.4,3372.8,2188z"/>
					<path fill="#FF3E49" d="M3145.9,1510.6c-2.7,37-7.6,74.6-24.4,106.4c-14.3,27.2-46.4,30.5-73.8,28.5
						c-22.3-1.6-68.2-0.3-83.9-17.3c-23.3-25.3,4.2-94.9,11.5-123.4c12.4-48.5,28-96.2,42.2-144.2c9.8-33.1,16.2-72.7,39.2-99.7
						c13.5-15.9,39.3-18,55.7-5.8c11.1,8.3,17.9,21,22.5,33.8c19.7,54.6,18.6,113.6,14.2,170.7
						C3148,1476.1,3147.2,1493.3,3145.9,1510.6z"/>
					<g>
						<path fill="#FF3E49" d="M3264.1,1543.4c-9.8-43.4-20.9-86.6-34.6-129c-6.8-21-14.2-41.8-22.5-62.3
							c-7.5-18.5-15.2-37.2-25.4-54.4c-9.4-16-21.2-29.5-36.7-39.8c-15.1-10-38.2-14.7-55-5.1c-18.8,10.7-26.6,35.8-28.8,55.9
							c-2.6,23.6-6.3,47.1-8,70.8c-3.1,44.1-1.9,88.3,3.9,132.1c2.9,21.8,6.8,43.4,11.7,64.8c2.4,10.6,5.1,21.1,8.1,31.5
							c2.7,9.4,5.1,19.3,10.4,27.7c10.6,16.7,31.3,16,48.4,12.2c21.9-5,43.5-11.1,65.2-16.6c17.4-4.4,37.9-7.4,51.6-20.1
							c9.3-8.6,15.2-20.9,16.2-33.5C3269.6,1565.8,3266.7,1554.6,3264.1,1543.4z"/>
					</g>
					<path fill="#E2A047" d="M3105.8,1020.2c2.7,11.2-3.6,30.7-5.1,38.2c-5.1,25.3-12.3,50.5-20.8,74.8
						c-21.8,62.5-56.7,120-106.2,164.5c-24.7,22.2-53.1,40.3-84.1,52.2c-15.4,5.9-31.5,10.2-47.8,12.7c-8.5,1.3-39.2,8-44.7-1.8
						c-3.1-5.4,4.5-16,9.3-18.2c33.5-15.5,67.3-31.1,97.3-52.8c23.1-16.7,44.6-37.4,58.3-62c15.3-27.6,23.1-58.4,32.5-88.4
						c9.7-30.9,21.4-61.9,41.7-87.6c8.5-10.8,18.7-21.2,30.4-28.6c7.8-4.9,18.1-10.2,27.4-11.2
						C3101,1011.3,3104.4,1014.8,3105.8,1020.2z"/>
					<path fill="#FFBEA4" d="M3185.2,991.9c-2.5-1.6-5.3-2.8-8.2-3.8c-10.4-3.6-19.7-7.4-27.3-15.8c-6.7-7.4-10.4-17-9.6-26.5
						c-2.1,0.5-4.1,1.3-5.9,2.5c-6.9,4.4-11,11.6-15,18.5c-4.5,7.9-9.1,15.8-13.6,23.7c-7.8,13.6-18.9,26.5-23.7,42
						c-3.4,11-0.8,26.3,10.5,32.2c14.8,7.7,38.5-1.1,52-7.9c12.8-6.4,24.8-15.5,34.2-26.2c6.1-7,13.1-16.1,13.6-25.7
						C3192.7,998.8,3189.6,994.7,3185.2,991.9z"/>
					<path fill="#E2A047" d="M3201.2,1000.4c-5.2-3.9-10.4-6.8-15.7-8.9c-10.5,18.1-24,33.8-43.1,41.8c-17,7.2-45.7,19.7-54.7,1.8
						c-3.7-7.1-1.3-14.5,3.5-21.9c-13.9,8.4-26.4,19.1-37.7,30.8c-12.8,13.3-24.7,28.3-32.4,45.1c-8.2,17.9-9.4,36.7-4.1,55.5
						c5.2,18.6,15,35.9,17.7,55.2c2.9,21-0.7,42.1,1,63.2c0.7,9.1,2.3,18.6,5.1,27.7c2.4,0.6,4.7,1.2,6.7,1.7
						c28.7,5.4,55.6,3.6,84.3,0c6.8-1,13.5-2.1,20.1-3.5c9.3-16.4,14.7-35,21.4-53.1c11.2-30,22.6-60,35.8-89.1
						C3229.6,1101.4,3249.2,1036.6,3201.2,1000.4z"/>
					<path fill="#FFBEA4" d="M3149.9,934.5c-3.4,10.4-8,20.3-14.1,29.4c-5.2,7.8-11.7,16.8-21.1,19.7c-22.6,7-29.9-23-31.5-38.9
						c-1.1-10.7-0.3-21.5,3.4-31.7c3.3-9,9.5-18.9,18.9-22.4c8.8-3.3,17.8,0.6,23.4,7.7c3.1,4,5,8.6,6.1,13.4
						c3.5-3.6,8.2-5.8,12.5-4.3C3157.9,911.1,3152.2,927.6,3149.9,934.5z"/>
					<path fill="#FABB60" d="M3059.4,1250.4c6.9-2,14.1-5.6,18.9-8.5c45.6-28.3,82.8-76.5,112.2-120.7
						c11.2-16.8,20.2-35.1,28.3-53.6c2.3-5.3,4.5-10.6,6.6-15.9c2.2-5.5,4.7-10.9,4.3-17c-1.3-17.2-22.8-25.9-37.7-22.5
						c-17.2,3.9-35.5,28-47.2,40.5c-12.2,13.1-24.6,26.7-34.6,41.5c-16.4,24.3-29.3,50.7-41.2,77.5c-9,20.3-21,41.7-26.8,63.2
						C3037.6,1252.2,3047.9,1253.6,3059.4,1250.4z"/>
					<path fill="#FABB60" d="M3066.2,1247.6c8.7-14.5-8.4-29.1-18-37.7c-21.4-19.2-47.9-31-73.6-43.2c-15.7-7.5-32.4-16.4-47.3-26.5
						c-11.6-7.9-29.7-31.1-44.6-27.3c-20.6,5.3,17.3,48.1,22.9,54.8c21.5,25.7,47.2,48.5,76.1,65.7
						C2999.1,1243.8,3050.2,1274.3,3066.2,1247.6z"/>
					<path fill="#FFBEA4" d="M2879.3,1129.4c-3.4-2.3-7.2-6.3-11.8-6c-5.6,0.4-11.1,5.1-16.3,7c-7.4,2.8-15.2,4.8-23.1,5.9
						c-8.5,1.2-15.7-0.1-23.9-2.5c-1.4-0.4-0.4-3.7,0.7-4c8.5-1.6,17-3.7,25.5-5.4c0.7-0.1,1.4-0.3,2.1-0.5c-2.8,0-5.6-0.1-8.4-0.3
						c-6.3-0.5-11-3-16.4-6.2c-0.3-0.2,0-1.3,0.3-1.3c5.1-0.3,10.2-1.3,15.3-0.8c5.3,0.5,10.5,0.5,15.8,0.2c0.1-0.2,0.3-0.4,0.4-0.6
						c-3.8-0.3-7.7-0.7-11.2-1.9c-4.2-1.4-8.2-4.4-11.8-6.8c-0.4-0.2,0-1.3,0.4-1.3c4.8,0.3,9.7-0.2,14.4,0.4
						c4.3,0.6,8.6,1.4,13,1.6c0.6,0,1.1,0,1.7,0.1c0.3-0.9,0.7-1.8,1.3-2.4c-1.2-0.2-2.4-0.5-3.5-0.8c-6.7-1.7-10.8-4.6-16.1-9v-0.1
						c4.2,0.7,8.4,0.7,12.6,1.5c4.2,0.8,8.3,1.6,12.5,1.8c8.3,0.5,17.4-2.2,25.4,0.3c10.6,3.3,16.1,17.1,11.3,26.9
						C2887.7,1129.9,2883.8,1132.4,2879.3,1129.4z"/>
					<path fill="#FFBEA4" d="M2819.4,1352.2c-2.5-5.2-8.6-7-13.6-8.9c-7.1-2.6-14-6.3-21.8-6.5c-7.9-0.2-22,5-24,12.4
						c-5.7,20.8,20.9,42,39.5,32.7c6.2-3.1,12.9-7.4,17.1-13C2820,1364.2,2822.1,1357.7,2819.4,1352.2z"/>
				</g>
				<path fill="#0B2974" d="M3087,864.9c-0.2,9.3,8.4,10,15.4,11c9.2,1.4,18.3,3.6,27,6.8c10.2,3.8,19.5,9.4,27.9,16.2
					c3.7,3,7,6,10.1,9.7c2.1,2.5,5.6,8.7,9.6,7.7c1.6-0.4,2.8-1.8,3.3-3.4c5.8-17.5,0.8-39.1-8.4-54.5s-24.9-29.2-43.9-24.9
					c-9.2,2.1-17.8,6.2-25.3,11.9c-3.9,3-7.5,6.3-10.6,10C3089.9,858.1,3087.1,861.3,3087,864.9z"/>
				<path fill="#0B2974" d="M3039.5,877.4c6.2,4.1,15.6,6.5,19.5,6.9c10.6,1,21.2-1.1,31.7-1.5c9.7-0.3,19.5-0.5,29.2,0.5
					c4.9,0.5,14.9,2.4,19.5,3.9c2,0.6,1.9-4.1,0.7-5.2c-9.2-8.3-22.7-12.7-34.5-15.7c-12.6-3.2-25.6-4.6-38.6-5
					c-6.6-0.2-13.2,0-19.8,0.8c-3.9,0.4-12.2,0.9-13.4,5.5C3032.8,871.4,3035.5,874.7,3039.5,877.4z"/>
			</g>
		</g>
		<g>
			<ellipse fill="#587722" cx="2466" cy="2480" rx="42.2" ry="6.6"/>
			<g>
				<g>
					<rect x="2452.4" y="2426.4" fill="#EBAF97" width="27.2" height="9.1"/>
					<rect x="2462" y="2434.4" fill="#EBAF97" width="7.9" height="46.3"/>
					<path fill="#FFBEA4" d="M2491.6,2428.9h-51.2c-2.5,0-4.5-2-4.5-4.5s2-4.5,4.5-4.5h51.2c2.5,0,4.5,2,4.5,4.5
						S2494.1,2428.9,2491.6,2428.9z"/>
					<path fill="#EBAF97" d="M2491.6,2419.9h-26.3v9.1h26.3c2.5,0,4.5-2,4.5-4.5C2496.1,2421.9,2494.1,2419.9,2491.6,2419.9z"/>
				</g>
				<circle fill="#E3E3E3" cx="2465.1" cy="2387" r="33.1"/>
				<path fill="#D4D4D4" d="M2484.1,2359.9c3.8,5.4,6,11.9,6,19c0,18.3-14.8,33.1-33.1,33.1c-7.1,0-13.6-2.2-19-6
					c6,8.5,15.8,14,27,14c18.3,0,33.1-14.8,33.1-33.1C2498.2,2375.8,2492.6,2365.9,2484.1,2359.9z"/>
				<g>
					<path fill="#FFFFFF" d="M2442.8,2376.1c-0.5,0-0.9-0.1-1.3-0.4c-1.1-0.7-1.4-2.2-0.6-3.3c3.1-4.5,7.2-8.3,11.9-11
						c1.2-0.7,2.6-0.2,3.3,0.9c0.7,1.2,0.2,2.6-0.9,3.3c-4.1,2.3-7.7,5.6-10.3,9.5C2444.3,2375.8,2443.6,2376.1,2442.8,2376.1z"/>
				</g>
			</g>
		</g>
	</g>
</g>
</svg>
