<?xml version="1.0" encoding="utf-8"?>
<!-- Generator: Adobe Illustrator 18.0.0, SVG Export Plug-In . SVG Version: 6.00 Build 0)  -->
<!DOCTYPE svg PUBLIC "-//W3C//DTD SVG 1.1//EN" "http://www.w3.org/Graphics/SVG/1.1/DTD/svg11.dtd">
<svg version="1.1" xmlns="http://www.w3.org/2000/svg" xmlns:xlink="http://www.w3.org/1999/xlink" x="0px" y="0px" width="572.8px"
	 height="91.2px" viewBox="0 0 572.8 91.2" enable-background="new 0 0 572.8 91.2" xml:space="preserve">
<g id="background">
</g>
<g id="golf_tee">
	<path fill="#FFFFFF" d="M0,45.6c0,17.7,1.6,33.7,4.3,45.6h27.4c6.3-5.9,15-10.6,26.2-14c5.6-1.7,12.9-3.6,22.4-5.9
		c8.7-1.7,24.1-3.6,45.8-4.8c0.7,0,1.4,0,2.4-0.3l378.8-3.6l65.4-16.8l-65.4-17.3l-378.8-3.6c-1,0-1.7,0-2.4-0.3
		c-21.7-1.1-37.1-2.8-45.8-4.8c-9.4-2.2-16.8-3.9-22.4-5.6C46.7,10.6,38,6.2,31.7,0L4.3,0C1.6,11.9,0,27.9,0,45.6z"/>
</g>
</svg>
